<svg version="1.1" xmlns="http://www.w3.org/2000/svg" xmlns:xlink="http://www.w3.org/1999/xlink" x="0px" y="0px"
	 width="132.89px" height="25.7px" viewBox="0 0 132.89 25.7" style="overflow:visible;enable-background:new 0 0 132.89 25.7;"
	 xml:space="preserve">
<style type="text/css">
	.st0{fill:#6D6E71;}
</style>
<defs>
</defs>
<g>
	<g>
		<g>
			<polygon points="79.63,25.7 71.25,25.7 71.25,23.72 74.72,23.72 70.39,19.56 71.76,18.13 			"/>
		</g>
	</g>
	<g>
		<g>
			<polygon points="57.24,6.92 55.26,6.92 55.26,0 62.18,0 62.18,1.98 57.24,1.98 			"/>
		</g>
	</g>
	<g>
		<g>
			<polygon points="57.28,18.78 55.3,18.78 55.3,25.7 62.22,25.7 62.22,23.72 57.28,23.72 			"/>
		</g>
	</g>
	<g>
		<g>
			<path d="M77.99,9.9l-1.98-0.04c0.04-2.1-0.75-4.07-2.21-5.57c-1.47-1.5-3.43-2.32-5.53-2.32h-0.17V0h0.17
				c2.63,0,5.09,1.03,6.94,2.91C77.06,4.79,78.05,7.27,77.99,9.9z"/>
		</g>
	</g>
</g>
<g>
	<g>
		<path class="st0" d="M2.43,13.51H0.47v2.54H0V9.84h2.45c1.01,0,1.84,0.82,1.84,1.83c0,0.84-0.58,1.55-1.37,1.76l1.54,2.61H3.92
			L2.43,13.51z M0.47,13.06h1.98c0.75,0,1.37-0.62,1.37-1.38c0-0.77-0.61-1.39-1.37-1.39H0.47V13.06z"/>
		<path class="st0" d="M18.25,15.61v0.44h-3.57V9.84h3.53v0.44h-3.06v2.41h2.84v0.44h-2.84v2.46H18.25z"/>
		<path class="st0" d="M32.42,15.61v0.44h-3.96v-0.44l3.35-5.32h-3.26V9.84h3.79v0.44l-3.35,5.32H32.42z"/>
		<path class="st0" d="M46.85,14.47h-3.11l-0.6,1.58h-0.5l2.41-6.21h0.5l2.4,6.21h-0.5L46.85,14.47z M46.68,14.03l-1.38-3.61
			l-1.38,3.61H46.68z"/>
	</g>
	<g>
		<path class="st0" d="M91.19,13.3c0,1.5-1.14,2.75-3,2.75c-1.92,0-3.26-1.43-3.26-3.2c0-1.77,1.34-3.2,3.23-3.2
			c1.15,0,2.15,0.6,2.67,1.5l-0.42,0.25c-0.41-0.78-1.28-1.29-2.25-1.29c-1.63,0-2.76,1.22-2.76,2.75c0,1.52,1.13,2.75,2.79,2.75
			c1.51,0,2.42-0.93,2.52-2.09h-2.63v-0.44h3.11V13.3z"/>
		<path class="st0" d="M96.57,13.41h-1.96v2.54h-0.47V9.75h2.45c1.01,0,1.84,0.82,1.84,1.83c0,0.84-0.58,1.55-1.37,1.76l1.54,2.61
			h-0.54L96.57,13.41z M94.62,12.96h1.98c0.75,0,1.37-0.62,1.37-1.38c0-0.77-0.61-1.39-1.37-1.39h-1.98V12.96z"/>
		<path class="st0" d="M104.93,14.37h-3.11l-0.6,1.58h-0.5l2.41-6.21h0.5l2.4,6.21h-0.5L104.93,14.37z M104.76,13.93l-1.38-3.61
			l-1.38,3.61H104.76z"/>
		<path class="st0" d="M112.75,11.67c0,1.09-0.82,1.91-1.93,1.91h-1.64v2.37h-0.47V9.75h2.11C111.94,9.75,112.75,10.57,112.75,11.67
			z M112.28,11.67c0-0.86-0.61-1.48-1.46-1.48h-1.64v2.95h1.64C111.67,13.14,112.28,12.52,112.28,11.67z"/>
		<path class="st0" d="M120.24,9.75v6.21h-0.47v-2.97h-3.61v2.97h-0.47V9.75h0.47v2.79h3.61V9.75H120.24z"/>
		<path class="st0" d="M124.03,9.75v6.21h-0.47V9.75H124.03z"/>
		<path class="st0" d="M126.99,12.85c0-1.77,1.34-3.2,3.23-3.2c1.14,0,2.15,0.59,2.66,1.49l-0.42,0.24
			c-0.41-0.76-1.27-1.28-2.24-1.28c-1.63,0-2.76,1.22-2.76,2.75c0,1.52,1.13,2.75,2.76,2.75c0.98,0,1.85-0.52,2.26-1.3l0.42,0.24
			c-0.51,0.91-1.52,1.52-2.68,1.52C128.33,16.05,126.99,14.62,126.99,12.85z"/>
	</g>
</g>
</svg>
